<?xml version="1.0" standalone="no"?>
<!DOCTYPE svg PUBLIC "-//W3C//DTD SVG 20010904//EN"
 "http://www.w3.org/TR/2001/REC-SVG-20010904/DTD/svg10.dtd">
<svg version="1.0" xmlns="http://www.w3.org/2000/svg"
 width="250.000000pt" height="250.000000pt" viewBox="0 0 250.000000 250.000000"
 preserveAspectRatio="xMidYMid meet">
<metadata>
Created by potrace 1.13, written by Peter Selinger 2001-2015
</metadata>
<g transform="translate(0.000000,250.000000) scale(0.100000,-0.100000)"
fill="#000000" stroke="none">
<path d="M1130 2463 c-72 -24 -78 -25 -150 -12 -41 7 -105 14 -142 17 -57 3
-69 1 -87 -17 -19 -19 -21 -33 -21 -127 0 -129 9 -151 90 -222 80 -70 81 -95
8 -136 -188 -106 -393 -275 -495 -410 -61 -82 -130 -225 -148 -311 -18 -84
-20 -357 -4 -472 37 -268 197 -464 474 -578 383 -159 1002 -130 1319 62 178
109 324 304 314 422 -3 34 -8 38 -78 74 -144 74 -284 198 -333 296 -99 198
-62 428 93 580 34 33 60 64 59 69 -13 30 -196 166 -336 249 -51 30 -93 60 -93
68 0 7 30 41 67 75 102 93 103 95 103 232 0 114 -1 118 -25 134 -28 18 -106
16 -227 -6 -63 -12 -72 -11 -150 14 -102 32 -142 32 -238 -1z m448 -315 c15
-15 15 -51 0 -66 -8 -8 -59 -12 -161 -12 l-150 0 7 -62 c23 -208 20 -228 -29
-228 -39 0 -49 27 -65 164 -10 87 -19 131 -27 131 -7 0 -53 -55 -102 -122 -87
-118 -97 -128 -131 -123 -17 2 -40 28 -40 45 0 6 29 51 66 100 l65 90 -43 3
c-66 5 -97 42 -62 76 13 14 58 16 338 16 237 0 325 -3 334 -12z m-276 -605 c3
-27 6 -28 74 -35 39 -4 82 -12 97 -17 25 -10 27 -15 27 -72 0 -49 -3 -60 -14
-56 -28 11 -92 25 -138 31 l-48 6 0 -104 0 -104 53 -17 c140 -46 207 -110 207
-199 0 -59 -22 -102 -72 -138 -38 -29 -119 -58 -160 -58 -25 0 -28 -3 -28 -35
l0 -35 -55 0 c-54 0 -55 1 -55 29 0 28 -2 29 -72 40 -40 6 -93 16 -118 24
l-45 13 -3 66 -3 66 48 -18 c26 -10 71 -21 98 -25 28 -3 60 -8 73 -11 23 -5
23 -4 20 97 l-3 101 -64 24 c-124 44 -181 106 -181 192 0 55 29 108 78 143 39
28 119 59 152 59 16 0 20 7 20 30 0 30 1 30 54 30 52 0 55 -1 58 -27z"/>
</g>
</svg>
